<svg width="9" height="12" viewBox="0 0 9 12" fill="none" xmlns="http://www.w3.org/2000/svg">
<path d="M0.147727 12H4.85795C7.52273 12 8.82955 10.642 8.82955 8.82955C8.82955 7.06818 7.57955 6.03409 6.34091 5.97159V5.85795C7.47727 5.59091 8.375 4.79545 8.375 3.38068C8.375 1.64773 7.125 0.363636 4.60227 0.363636H0.147727V12ZM2.25568 10.2386V6.82955H4.57955C5.88068 6.82955 6.6875 7.625 6.6875 8.66477C6.6875 9.59091 6.05114 10.2386 4.52273 10.2386H2.25568ZM2.25568 5.3125V2.10227H4.38636C5.625 2.10227 6.26705 2.75568 6.26705 3.65341C6.26705 4.67614 5.4375 5.3125 4.34091 5.3125H2.25568Z" fill="#010101"/>
</svg>
