<svg width="22" height="23" viewBox="0 0 22 23" fill="none" xmlns="http://www.w3.org/2000/svg">
<path fill-rule="evenodd" clip-rule="evenodd" d="M11.0001 3.24825C6.44373 3.24825 2.75008 6.9419 2.75008 11.4982C2.75008 16.0546 6.44373 19.7482 11.0001 19.7482C15.5564 19.7482 19.2501 16.0546 19.2501 11.4982C19.2501 6.9419 15.5564 3.24825 11.0001 3.24825ZM0.916748 11.4982C0.916748 5.92938 5.43121 1.41492 11.0001 1.41492C16.569 1.41492 21.0834 5.92938 21.0834 11.4982C21.0834 17.0671 16.569 21.5816 11.0001 21.5816C5.43121 21.5816 0.916748 17.0671 0.916748 11.4982Z" fill="#CFCFCF"/>
<path fill-rule="evenodd" clip-rule="evenodd" d="M10.9999 5.08167C11.5062 5.08167 11.9166 5.49207 11.9166 5.99833V10.9318L15.0765 12.5118C15.5293 12.7382 15.7129 13.2888 15.4865 13.7416C15.2601 14.1944 14.7095 14.378 14.2566 14.1516L10.59 12.3182C10.2794 12.1629 10.0833 11.8455 10.0833 11.4983V5.99833C10.0833 5.49207 10.4937 5.08167 10.9999 5.08167Z" fill="#CFCFCF"/>
</svg>
