<svg width="21" height="20" viewBox="0 0 21 20" fill="none" xmlns="http://www.w3.org/2000/svg">
<g clip-path="url(#clip0_369_351)">
<path d="M15.9008 4.50328C15.0541 3.65524 14.0468 2.98148 12.9367 2.5207C11.8266 2.05992 10.6356 1.8212 9.43225 1.81826C8.22887 1.81533 7.03675 2.04823 5.9244 2.50358C4.81204 2.95894 3.80137 3.62777 2.95044 4.47167C2.09952 5.31556 1.42511 6.31788 0.965957 7.42104C0.506808 8.5242 0.271968 9.70647 0.27493 10.8999C0.277892 12.0934 0.518597 13.2745 0.983216 14.3754C1.44784 15.4763 2.12721 16.4753 2.98232 17.315C3.82905 18.1631 4.83639 18.8368 5.94647 19.2976C7.05655 19.7584 8.24749 19.9971 9.45088 20C10.6543 20.003 11.8464 19.7701 12.9587 19.3147C14.0711 18.8594 15.0818 18.1905 15.9327 17.3466C16.7836 16.5027 17.458 15.5004 17.9172 14.3973C18.3763 13.2941 18.6112 12.1118 18.6082 10.9184C18.6052 9.72494 18.3645 8.54384 17.8999 7.44293C17.4353 6.34202 16.7559 5.34301 15.9008 4.50328ZM12.3778 8.96785C12.5714 8.96785 12.7606 9.02478 12.9215 9.13143C13.0825 9.23809 13.2079 9.38969 13.282 9.56705C13.3561 9.74441 13.3755 9.93958 13.3377 10.1279C13.2999 10.3162 13.2067 10.4891 13.0698 10.6249C12.933 10.7606 12.7586 10.853 12.5687 10.8905C12.3789 10.9279 12.1821 10.9087 12.0032 10.8353C11.8244 10.7618 11.6715 10.6374 11.564 10.4778C11.4564 10.3181 11.399 10.1305 11.399 9.9385C11.3987 9.81094 11.4238 9.68458 11.4729 9.56667C11.522 9.44876 11.594 9.34163 11.685 9.25143C11.7759 9.16124 11.884 9.08975 12.0028 9.04109C12.1217 8.99242 12.2492 8.96753 12.3778 8.96785ZM6.50536 8.96785C6.69894 8.96785 6.88816 9.02478 7.04912 9.13143C7.21007 9.23809 7.33552 9.38969 7.40959 9.56705C7.48367 9.74441 7.50305 9.93958 7.46529 10.1279C7.42752 10.3162 7.33431 10.4891 7.19743 10.6249C7.06055 10.7606 6.88616 10.853 6.6963 10.8905C6.50645 10.9279 6.30965 10.9087 6.13081 10.8353C5.95197 10.7618 5.79912 10.6374 5.69157 10.4778C5.58403 10.3181 5.52662 10.1305 5.52662 9.9385C5.5263 9.81094 5.5514 9.68458 5.60047 9.56667C5.64954 9.44876 5.72162 9.34163 5.81257 9.25143C5.90352 9.16124 6.01154 9.08975 6.13043 9.04109C6.24932 8.99242 6.37674 8.96753 6.50536 8.96785ZM9.44361 16.0859C7.59135 16.0859 6.02823 14.8933 5.54008 13.2618C5.49767 13.1194 5.44506 12.8504 5.44506 12.8504H13.4381C13.4381 12.8504 13.3847 13.121 13.3431 13.2618C12.8627 14.8941 11.2959 16.0859 9.44361 16.0859Z" fill="#CFCFCF"/>
</g>
<defs>
<clipPath id="clip0_369_351">
<rect width="20.1667" height="20" fill="white" transform="translate(0.274902)"/>
</clipPath>
</defs>
</svg>
