<svg width="22" height="22" viewBox="0 0 22 22" fill="none" xmlns="http://www.w3.org/2000/svg">
<path d="M17.8059 4.19411C16.9137 3.29313 15.8523 2.5773 14.6827 2.08775C13.513 1.5982 12.2582 1.34458 10.9902 1.34146C9.72229 1.33834 8.46621 1.58578 7.29417 2.06956C6.12213 2.55335 5.05723 3.26395 4.16065 4.16053C3.26407 5.05711 2.55347 6.12201 2.06969 7.29405C1.5859 8.46609 1.33846 9.72217 1.34158 10.9901C1.3447 12.2581 1.59832 13.5129 2.08787 14.6826C2.57742 15.8522 3.29325 16.9136 4.19423 17.8058C5.08639 18.7067 6.14778 19.4226 7.31742 19.9121C8.48707 20.4017 9.74191 20.6553 11.0099 20.6584C12.2778 20.6615 13.5339 20.4141 14.7059 19.9303C15.878 19.4465 16.9429 18.7359 17.8395 17.8393C18.736 16.9428 19.4466 15.8779 19.9304 14.7058C20.4142 13.5338 20.6616 12.2777 20.6585 11.0097C20.6554 9.74179 20.4018 8.48695 19.9122 7.3173C19.4227 6.14766 18.7069 5.08627 17.8059 4.19411ZM14.0938 8.93743C14.2978 8.93743 14.4971 8.99791 14.6667 9.11123C14.8363 9.22455 14.9685 9.3856 15.0466 9.57404C15.1246 9.76248 15.145 9.96983 15.1052 10.1699C15.0655 10.3699 14.9672 10.5537 14.823 10.6979C14.6788 10.8421 14.495 10.9403 14.295 10.9801C14.0949 11.0199 13.8876 10.9995 13.6992 10.9214C13.5107 10.8434 13.3497 10.7112 13.2364 10.5416C13.123 10.372 13.0626 10.1726 13.0626 9.96868C13.0622 9.83316 13.0887 9.69891 13.1404 9.57364C13.1921 9.44837 13.268 9.33455 13.3638 9.23872C13.4597 9.14289 13.5735 9.06694 13.6988 9.01524C13.824 8.96354 13.9583 8.93709 14.0938 8.93743ZM7.90631 8.93743C8.11027 8.93743 8.30965 8.99791 8.47924 9.11123C8.64882 9.22455 8.781 9.3856 8.85906 9.57404C8.93711 9.76248 8.95753 9.96983 8.91774 10.1699C8.87795 10.3699 8.77973 10.5537 8.63551 10.6979C8.49129 10.8421 8.30754 10.9403 8.10749 10.9801C7.90745 11.0199 7.7001 10.9995 7.51166 10.9214C7.32323 10.8434 7.16217 10.7112 7.04885 10.5416C6.93554 10.372 6.87505 10.1726 6.87505 9.96868C6.87471 9.83316 6.90116 9.69891 6.95286 9.57364C7.00457 9.44837 7.08051 9.33455 7.17634 9.23872C7.27217 9.14289 7.38599 9.06694 7.51126 9.01524C7.63653 8.96354 7.77078 8.93709 7.90631 8.93743ZM11.0022 16.4999C9.05056 16.4999 7.40357 15.2328 6.88924 13.4994C6.84455 13.3482 6.78912 13.0624 6.78912 13.0624H15.211C15.211 13.0624 15.1547 13.3499 15.1109 13.4994C14.6047 15.2336 12.9538 16.4999 11.0022 16.4999Z" fill="#CFCFCF"/>
</svg>
