<svg width="24" height="25" viewBox="0 0 24 25" fill="none" xmlns="http://www.w3.org/2000/svg">
<path d="M15.7499 12.4983C14.7862 12.4983 13.8543 12.068 13.1249 11.287C12.4157 10.5253 11.9826 9.50954 11.9062 8.42767C11.8246 7.2736 12.1767 6.21235 12.8971 5.43892C13.6176 4.66548 14.6249 4.24829 15.7499 4.24829C16.867 4.24829 17.8771 4.67298 18.5953 5.44454C19.3204 6.2236 19.6734 7.28298 19.5918 8.4272C19.5135 9.51048 19.0809 10.5258 18.3731 11.2866C17.6456 12.068 16.7142 12.4983 15.7499 12.4983ZM21.9295 20.7483H9.57088C9.37219 20.7494 9.17589 20.7048 8.99711 20.6181C8.81833 20.5314 8.66182 20.4048 8.53963 20.2481C8.41003 20.0783 8.32052 19.8813 8.27782 19.6719C8.23513 19.4626 8.24034 19.2463 8.29307 19.0392C8.68776 17.4544 9.66557 16.14 11.1206 15.2386C12.412 14.4389 14.0559 13.9983 15.7499 13.9983C17.4773 13.9983 19.0781 14.4202 20.377 15.2194C21.8353 16.1161 22.8145 17.438 23.2073 19.042C23.2594 19.2492 23.264 19.4655 23.2208 19.6748C23.1777 19.884 23.0878 20.0808 22.9579 20.2505C22.8359 20.4064 22.6797 20.5324 22.5014 20.6187C22.3232 20.705 22.1275 20.7493 21.9295 20.7483ZM6.89057 12.6858C5.24104 12.6858 3.79073 11.152 3.6562 9.2672C3.58963 8.30157 3.89057 7.4086 4.49995 6.75376C5.10276 6.10548 5.95307 5.74829 6.89057 5.74829C7.82807 5.74829 8.67182 6.10735 9.27792 6.75939C9.89198 7.41939 10.192 8.31048 10.1217 9.26813C9.98713 11.1525 8.53729 12.6858 6.89057 12.6858ZM9.96838 14.16C9.14385 13.7569 8.0737 13.5553 6.89104 13.5553C5.5101 13.5553 4.16901 13.9153 3.11432 14.5688C1.91854 15.3108 1.11417 16.3913 0.789322 17.6958C0.741783 17.8834 0.737287 18.0794 0.776169 18.269C0.815051 18.4586 0.896305 18.637 1.01385 18.7908C1.12539 18.934 1.26828 19.0497 1.43154 19.129C1.5948 19.2083 1.77407 19.2491 1.95557 19.2483H7.1587C7.24652 19.2483 7.33155 19.2174 7.39896 19.1612C7.46638 19.1049 7.51191 19.0267 7.5276 18.9403C7.53276 18.9108 7.53932 18.8813 7.54682 18.8522C7.94432 17.2556 8.87573 15.9066 10.252 14.9231C10.3026 14.8866 10.3433 14.8381 10.3704 14.7819C10.3975 14.7257 10.4102 14.6636 10.4073 14.6013C10.4044 14.539 10.3859 14.4784 10.3536 14.425C10.3214 14.3716 10.2763 14.3271 10.2224 14.2955C10.1489 14.2524 10.0645 14.2069 9.96838 14.16Z" fill="#CFCFCF"/>
</svg>
