<svg width="63" height="49" viewBox="0 0 63 49" fill="none" xmlns="http://www.w3.org/2000/svg">
<path d="M62.9334 39V15.3934C62.9334 8.15532 55.4821 3.31474 48.8689 6.25666L33.6444 13.0293C32.3464 13.6068 31.1864 14.4541 30.2415 15.5149L15.2477 32.3489C9.50563 38.7957 14.0819 49 22.7151 49H52.9334C58.4563 49 62.9334 44.5228 62.9334 39Z" fill="#EB2840"/>
<path d="M47.3242 38C49.4871 38 50.9392 35.7808 50.0733 33.7989L45.0452 22.2915C43.9972 19.8931 40.5951 19.8931 39.5471 22.2915L34.5191 33.7989C33.6531 35.7808 35.1052 38 37.2681 38L38.3702 38C39.352 38 40.1864 37.2824 40.3332 36.3116V36.3116C40.6737 34.0605 43.9186 34.0605 44.2591 36.3116V36.3116C44.4059 37.2824 45.2403 38 46.2221 38L47.3242 38Z" fill="white"/>
</svg>
