<svg width="13" height="16" viewBox="0 0 13 16" fill="none" xmlns="http://www.w3.org/2000/svg">
<path d="M9.33949 4.45312H11.875C11.8253 1.99574 9.73011 0.255681 6.63352 0.255681C3.57955 0.255681 1.28551 1.97443 1.29261 4.54545C1.29261 6.63352 2.77699 7.83381 5.17045 8.4517L6.82528 8.87784C8.39489 9.27557 9.43182 9.76562 9.43892 10.8949C9.43182 12.1378 8.25284 12.9688 6.53409 12.9688C4.88636 12.9688 3.60795 12.2301 3.50142 10.7031H0.909091C1.01562 13.5938 3.16761 15.2202 6.5554 15.2202C10.0426 15.2202 12.0668 13.4801 12.0739 10.9162C12.0668 8.39489 9.9858 7.24432 7.7983 6.72585L6.43466 6.38494C5.24148 6.10085 3.94886 5.59659 3.96307 4.3821C3.97017 3.28835 4.95028 2.4858 6.59801 2.4858C8.16761 2.4858 9.20455 3.21733 9.33949 4.45312Z" fill="#010101"/>
<path d="M0 8.4517H12.983V10.1776H0V8.4517Z" fill="#010101"/>
</svg>
