<svg width="40" height="40" viewBox="0 0 40 40" fill="none" xmlns="http://www.w3.org/2000/svg">
<circle cx="20" cy="20" r="20" fill="#CFCFCF"/>
<path d="M23.3182 19.0909C22.4421 19.0909 21.5949 18.6997 20.9318 17.9898C20.2871 17.2973 19.8933 16.3739 19.8239 15.3903C19.7497 14.3412 20.0698 13.3764 20.7247 12.6733C21.3797 11.9702 22.2955 11.5909 23.3182 11.5909C24.3337 11.5909 25.252 11.977 25.9048 12.6784C26.5641 13.3867 26.885 14.3497 26.8108 15.3899C26.7396 16.3747 26.3463 17.2977 25.7029 17.9893C25.0415 18.6997 24.1948 19.0909 23.3182 19.0909ZM28.936 26.5909H17.7009C17.5202 26.5919 17.3418 26.5514 17.1793 26.4726C17.0167 26.3937 16.8744 26.2787 16.7634 26.1362C16.6455 25.9818 16.5642 25.8027 16.5254 25.6124C16.4865 25.4221 16.4913 25.2254 16.5392 25.0372C16.898 23.5965 17.787 22.4016 19.1097 21.5821C20.2837 20.8551 21.7781 20.4545 23.3182 20.4545C24.8885 20.4545 26.3438 20.8381 27.5246 21.5646C28.8503 22.3798 29.7405 23.5815 30.0976 25.0398C30.145 25.2281 30.1492 25.4248 30.1099 25.615C30.0707 25.8052 29.989 25.9841 29.8709 26.1384C29.7599 26.2801 29.618 26.3946 29.4559 26.4731C29.2939 26.5515 29.116 26.5918 28.936 26.5909ZM15.2642 19.2614C13.7646 19.2614 12.4462 17.867 12.3239 16.1536C12.2634 15.2757 12.5369 14.4639 13.0909 13.8686C13.6389 13.2793 14.4119 12.9545 15.2642 12.9545C16.1165 12.9545 16.8835 13.281 17.4345 13.8737C17.9928 14.4737 18.2655 15.2838 18.2016 16.1544C18.0793 17.8675 16.7612 19.2614 15.2642 19.2614ZM18.0622 20.6016C17.3127 20.2351 16.3398 20.0518 15.2646 20.0518C14.0093 20.0518 12.7901 20.3791 11.8313 20.9732C10.7442 21.6477 10.0129 22.63 9.71763 23.8159C9.67442 23.9865 9.67033 24.1646 9.70567 24.337C9.74102 24.5094 9.81489 24.6716 9.92175 24.8114C10.0231 24.9415 10.1531 25.0467 10.3015 25.1188C10.4499 25.1909 10.6129 25.228 10.7779 25.2273H15.508C15.5878 25.2273 15.6651 25.1992 15.7264 25.1481C15.7877 25.0969 15.8291 25.0259 15.8433 24.9473C15.848 24.9205 15.854 24.8936 15.8608 24.8672C16.2222 23.4158 17.0689 22.1894 18.32 21.2953C18.3661 21.2621 18.4031 21.218 18.4277 21.1669C18.4524 21.1158 18.4639 21.0594 18.4612 21.0027C18.4586 20.9461 18.4418 20.891 18.4125 20.8424C18.3831 20.7939 18.3421 20.7534 18.2932 20.7247C18.2263 20.6855 18.1496 20.6442 18.0622 20.6016Z" fill="white"/>
</svg>
